<svg xmlns="http://www.w3.org/2000/svg" xmlns:xlink="http://www.w3.org/1999/xlink" width="500" zoomAndPan="magnify" viewBox="0 0 375 374.999991" height="500" preserveAspectRatio="xMidYMid meet" version="1.0"><defs><clipPath id="21b56549ad"><path d="M 0 37.5 L 375 37.5 L 375 332 L 0 332 Z M 0 37.5 " clip-rule="nonzero"/></clipPath></defs><rect x="-37.5" width="450" fill="#ffffff" y="-37.499999" height="449.999989" fill-opacity="1"/><rect x="-37.5" width="450" fill="#000000" y="-37.499999" height="449.999989" fill-opacity="1"/><g clip-path="url(#21b56549ad)"><path fill="#ffffff" d="M 334.6875 37.5 L 40.3125 37.5 C 38.996094 37.5 37.6875 37.5625 36.378906 37.691406 C 35.070312 37.820312 33.769531 38.015625 32.480469 38.269531 C 31.191406 38.527344 29.917969 38.847656 28.660156 39.226562 C 27.402344 39.609375 26.164062 40.050781 24.949219 40.554688 C 23.734375 41.058594 22.550781 41.621094 21.390625 42.238281 C 20.230469 42.859375 19.105469 43.535156 18.011719 44.265625 C 16.917969 44.996094 15.863281 45.777344 14.847656 46.613281 C 13.832031 47.445312 12.859375 48.328125 11.929688 49.257812 C 11 50.1875 10.117188 51.160156 9.28125 52.175781 C 8.449219 53.191406 7.667969 54.246094 6.9375 55.339844 C 6.207031 56.433594 5.53125 57.558594 4.910156 58.71875 C 4.289062 59.878906 3.730469 61.066406 3.226562 62.28125 C 2.722656 63.496094 2.28125 64.730469 1.898438 65.988281 C 1.515625 67.246094 1.199219 68.519531 0.941406 69.8125 C 0.683594 71.101562 0.492188 72.398438 0.363281 73.707031 C 0.234375 75.015625 0.171875 76.328125 0.171875 77.640625 L 0.171875 291.734375 C 0.171875 293.046875 0.234375 294.359375 0.363281 295.667969 C 0.492188 296.976562 0.683594 298.273438 0.941406 299.5625 C 1.199219 300.855469 1.515625 302.128906 1.898438 303.386719 C 2.28125 304.644531 2.722656 305.878906 3.226562 307.09375 C 3.730469 308.308594 4.289062 309.496094 4.910156 310.65625 C 5.53125 311.816406 6.207031 312.941406 6.9375 314.035156 C 7.667969 315.128906 8.449219 316.183594 9.28125 317.199219 C 10.117188 318.214844 11 319.1875 11.929688 320.117188 C 12.859375 321.046875 13.832031 321.929688 14.847656 322.761719 C 15.863281 323.597656 16.917969 324.378906 18.011719 325.109375 C 19.105469 325.839844 20.230469 326.515625 21.390625 327.136719 C 22.550781 327.753906 23.734375 328.316406 24.949219 328.820312 C 26.164062 329.324219 27.402344 329.765625 28.660156 330.144531 C 29.917969 330.527344 31.191406 330.847656 32.480469 331.105469 C 33.769531 331.359375 35.070312 331.554688 36.378906 331.683594 C 37.6875 331.8125 38.996094 331.875 40.3125 331.875 L 334.6875 331.875 C 336.003906 331.875 337.3125 331.8125 338.621094 331.683594 C 339.929688 331.554688 341.230469 331.359375 342.519531 331.105469 C 343.808594 330.847656 345.082031 330.527344 346.339844 330.144531 C 347.597656 329.765625 348.835938 329.324219 350.050781 328.820312 C 351.265625 328.316406 352.449219 327.753906 353.609375 327.136719 C 354.769531 326.515625 355.894531 325.839844 356.988281 325.109375 C 358.082031 324.378906 359.136719 323.597656 360.152344 322.761719 C 361.167969 321.929688 362.140625 321.046875 363.070312 320.117188 C 364 319.1875 364.882812 318.214844 365.71875 317.199219 C 366.550781 316.183594 367.332031 315.128906 368.0625 314.035156 C 368.792969 312.941406 369.46875 311.816406 370.089844 310.65625 C 370.710938 309.496094 371.269531 308.308594 371.773438 307.09375 C 372.277344 305.878906 372.71875 304.644531 373.101562 303.386719 C 373.484375 302.128906 373.800781 300.855469 374.058594 299.5625 C 374.316406 298.273438 374.507812 296.976562 374.636719 295.667969 C 374.765625 294.359375 374.828125 293.046875 374.828125 291.734375 L 374.828125 77.640625 C 374.828125 76.328125 374.765625 75.015625 374.636719 73.707031 C 374.507812 72.398438 374.316406 71.101562 374.058594 69.8125 C 373.800781 68.519531 373.484375 67.246094 373.101562 65.988281 C 372.71875 64.730469 372.277344 63.496094 371.773438 62.28125 C 371.269531 61.066406 370.710938 59.878906 370.089844 58.71875 C 369.46875 57.558594 368.792969 56.433594 368.0625 55.339844 C 367.332031 54.246094 366.550781 53.191406 365.71875 52.175781 C 364.882812 51.160156 364 50.1875 363.070312 49.257812 C 362.140625 48.328125 361.167969 47.445312 360.152344 46.613281 C 359.136719 45.777344 358.082031 44.996094 356.988281 44.265625 C 355.894531 43.535156 354.769531 42.859375 353.609375 42.238281 C 352.449219 41.621094 351.265625 41.058594 350.050781 40.554688 C 348.835938 40.050781 347.597656 39.609375 346.339844 39.226562 C 345.082031 38.847656 343.808594 38.527344 342.519531 38.269531 C 341.230469 38.015625 339.929688 37.820312 338.621094 37.691406 C 337.3125 37.5625 336.003906 37.5 334.6875 37.5 Z M 26.933594 81.65625 L 138.660156 175.320312 L 137.859375 175.320312 L 26.933594 286.246094 Z M 187.5 180.671875 L 47.804688 64.261719 L 327.195312 64.261719 Z M 156.859375 194.054688 C 157.566406 193.195312 158.144531 192.257812 158.597656 191.242188 L 178.9375 208.238281 C 179.53125 208.734375 180.167969 209.175781 180.839844 209.5625 C 181.515625 209.949219 182.214844 210.273438 182.945312 210.539062 C 183.675781 210.800781 184.421875 211 185.1875 211.136719 C 185.953125 211.269531 186.722656 211.335938 187.5 211.335938 C 188.277344 211.335938 189.046875 211.269531 189.8125 211.136719 C 190.578125 211 191.324219 210.800781 192.054688 210.539062 C 192.785156 210.273438 193.484375 209.949219 194.160156 209.5625 C 194.832031 209.175781 195.46875 208.734375 196.0625 208.238281 L 216.402344 191.242188 C 216.855469 192.257812 217.433594 193.195312 218.140625 194.054688 L 329.203125 305.113281 L 45.796875 305.113281 Z M 237.140625 175.054688 L 236.339844 175.054688 L 348.066406 81.65625 L 348.066406 286.246094 Z M 237.140625 175.054688 " fill-opacity="1" fill-rule="nonzero"/></g></svg>