<svg xmlns="http://www.w3.org/2000/svg" xmlns:xlink="http://www.w3.org/1999/xlink" width="500" zoomAndPan="magnify" viewBox="0 0 375 374.999991" height="500" preserveAspectRatio="xMidYMid meet" version="1.0"><defs><clipPath id="9e0dd1ff40"><path d="M 0 8.863281 L 375 8.863281 L 375 365 L 0 365 Z M 0 8.863281 " clip-rule="nonzero"/></clipPath></defs><rect x="-37.5" width="450" fill="#ffffff" y="-37.499999" height="449.999989" fill-opacity="1"/><rect x="-37.5" width="450" fill="#000000" y="-37.499999" height="449.999989" fill-opacity="1"/><g clip-path="url(#9e0dd1ff40)"><path fill="#764abc" d="M 259.804688 257.203125 C 273.636719 255.773438 284.132812 243.855469 283.652344 229.554688 C 283.179688 215.257812 271.25 203.816406 256.941406 203.816406 L 255.988281 203.816406 C 241.199219 204.292969 229.753906 216.6875 230.230469 231.460938 C 230.707031 238.613281 233.570312 244.808594 237.863281 249.097656 C 221.644531 281.035156 196.839844 304.390625 159.632812 323.933594 C 134.351562 337.28125 108.117188 342.046875 81.882812 338.710938 C 60.417969 335.851562 43.722656 326.320312 33.226562 310.585938 C 17.964844 287.230469 16.535156 261.96875 29.414062 236.707031 C 38.476562 218.59375 52.785156 205.246094 61.847656 198.574219 C 59.941406 192.375 57.078125 181.890625 55.648438 174.265625 C -13.515625 224.3125 -6.359375 292 14.628906 323.933594 C 30.367188 347.769531 62.328125 362.542969 97.625 362.542969 C 107.164062 362.542969 116.703125 361.589844 126.246094 359.207031 C 187.300781 347.289062 233.570312 311.0625 259.804688 257.203125 Z M 343.757812 198.097656 C 307.503906 155.675781 254.082031 132.316406 193.023438 132.316406 L 185.394531 132.316406 C 181.101562 123.738281 172.035156 118.019531 162.019531 118.019531 L 161.066406 118.019531 C 146.28125 118.496094 134.832031 130.886719 135.308594 145.664062 C 135.785156 159.964844 147.710938 171.402344 162.019531 171.402344 L 162.972656 171.402344 C 173.46875 170.925781 182.53125 164.253906 186.347656 155.195312 L 194.933594 155.195312 C 231.183594 155.195312 265.527344 165.683594 296.535156 186.179688 C 320.382812 201.910156 337.554688 222.40625 347.09375 247.191406 C 355.203125 267.210938 354.726562 286.753906 346.140625 303.4375 C 332.785156 328.699219 310.367188 342.523438 280.792969 342.523438 C 261.710938 342.523438 243.585938 336.804688 234.046875 332.511719 C 228.800781 337.28125 219.257812 344.90625 212.582031 349.675781 C 233.09375 359.207031 254.082031 364.449219 274.113281 364.449219 C 319.90625 364.449219 353.773438 339.1875 366.652344 313.925781 C 380.484375 286.277344 379.53125 238.613281 343.757812 198.097656 Z M 101.441406 265.304688 C 101.917969 279.605469 113.84375 291.042969 128.152344 291.042969 L 129.105469 291.042969 C 143.894531 290.566406 155.339844 278.171875 154.863281 263.398438 C 154.386719 249.097656 142.460938 237.660156 128.152344 237.660156 L 127.199219 237.660156 C 126.246094 237.660156 124.8125 237.660156 123.859375 238.132812 C 104.304688 205.722656 96.195312 170.449219 99.058594 132.316406 C 100.964844 103.71875 110.503906 78.929688 127.199219 58.433594 C 141.03125 40.796875 167.742188 32.21875 185.871094 31.742188 C 236.429688 30.789062 257.894531 93.707031 259.328125 118.96875 C 265.527344 120.398438 276.023438 123.738281 283.179688 126.121094 C 277.453125 48.902344 229.753906 8.863281 183.960938 8.863281 C 141.03125 8.863281 101.441406 39.847656 85.699219 85.605469 C 63.757812 146.617188 78.066406 205.246094 104.777344 251.480469 C 102.394531 254.816406 100.964844 260.0625 101.441406 265.304688 Z M 101.441406 265.304688 " fill-opacity="1" fill-rule="nonzero"/></g></svg>