<svg xmlns="http://www.w3.org/2000/svg" xmlns:xlink="http://www.w3.org/1999/xlink" width="500" zoomAndPan="magnify" viewBox="0 0 375 374.999991" height="500" preserveAspectRatio="xMidYMid meet" version="1.0"><defs><clipPath id="bee82a70a9"><path d="M 0 108.347656 L 375 108.347656 L 375 269.511719 L 0 269.511719 Z M 0 108.347656 " clip-rule="nonzero"/></clipPath><clipPath id="00fec11b15"><path d="M 17.25 108.347656 L 357.75 108.347656 C 362.324219 108.347656 366.710938 110.167969 369.949219 113.402344 C 373.183594 116.636719 375 121.023438 375 125.597656 L 375 252.261719 C 375 256.839844 373.183594 261.226562 369.949219 264.460938 C 366.710938 267.695312 362.324219 269.511719 357.75 269.511719 L 17.25 269.511719 C 12.675781 269.511719 8.289062 267.695312 5.050781 264.460938 C 1.816406 261.226562 0 256.839844 0 252.261719 L 0 125.597656 C 0 121.023438 1.816406 116.636719 5.050781 113.402344 C 8.289062 110.167969 12.675781 108.347656 17.25 108.347656 Z M 17.25 108.347656 " clip-rule="nonzero"/></clipPath><clipPath id="ed83c850d4"><path d="M 0 0.347656 L 375 0.347656 L 375 161.511719 L 0 161.511719 Z M 0 0.347656 " clip-rule="nonzero"/></clipPath><clipPath id="a4cc4e2e74"><path d="M 17.25 0.347656 L 357.75 0.347656 C 362.324219 0.347656 366.710938 2.167969 369.949219 5.402344 C 373.183594 8.636719 375 13.023438 375 17.597656 L 375 144.261719 C 375 148.839844 373.183594 153.226562 369.949219 156.460938 C 366.710938 159.695312 362.324219 161.511719 357.75 161.511719 L 17.25 161.511719 C 12.675781 161.511719 8.289062 159.695312 5.050781 156.460938 C 1.816406 153.226562 0 148.839844 0 144.261719 L 0 17.597656 C 0 13.023438 1.816406 8.636719 5.050781 5.402344 C 8.289062 2.167969 12.675781 0.347656 17.25 0.347656 Z M 17.25 0.347656 " clip-rule="nonzero"/></clipPath><clipPath id="7b840e90f0"><rect x="0" width="375" y="0" height="162"/></clipPath><clipPath id="64e40a9e40"><path d="M 13 119 L 116 119 L 116 228 L 13 228 Z M 13 119 " clip-rule="nonzero"/></clipPath><clipPath id="affe17756d"><path d="M 115.898438 119.03125 L 21.730469 119.03125 C 17.078125 119.03125 13.292969 122.8125 13.292969 127.46875 L 13.292969 227.410156 C 34.621094 219.222656 66.632812 212.15625 88.765625 212.480469 C 93.210938 189.214844 106.285156 143.617188 115.898438 119.03125 Z M 115.898438 119.03125 " clip-rule="nonzero"/></clipPath><linearGradient x1="-15.811244" gradientTransform="matrix(-0.000000493484, 11.284716, -11.280252, -0.00000049368, -30.286319, 297.454936)" y1="-9.108" x2="-6.206887" gradientUnits="userSpaceOnUse" y2="-9.108" id="1ba848e85a"><stop stop-opacity="1" stop-color="rgb(59.21936%, 85.099792%, 96.469116%)" offset="0"/><stop stop-opacity="1" stop-color="rgb(59.21936%, 85.099792%, 96.469116%)" offset="0.015625"/><stop stop-opacity="1" stop-color="rgb(59.124756%, 85.037231%, 96.440125%)" offset="0.0234375"/><stop stop-opacity="1" stop-color="rgb(58.784485%, 84.815979%, 96.334839%)" offset="0.0273438"/><stop stop-opacity="1" stop-color="rgb(58.540344%, 84.655762%, 96.260071%)" offset="0.03125"/><stop stop-opacity="1" stop-color="rgb(58.294678%, 84.494019%, 96.183777%)" offset="0.0351562"/><stop stop-opacity="1" stop-color="rgb(58.050537%, 84.333801%, 96.109009%)" offset="0.0390625"/><stop stop-opacity="1" stop-color="rgb(57.804871%, 84.173584%, 96.032715%)" offset="0.0429687"/><stop stop-opacity="1" stop-color="rgb(57.56073%, 84.013367%, 95.956421%)" offset="0.046875"/><stop stop-opacity="1" stop-color="rgb(57.315063%, 83.853149%, 95.880127%)" offset="0.0507813"/><stop stop-opacity="1" stop-color="rgb(57.069397%, 83.692932%, 95.805359%)" offset="0.0546875"/><stop stop-opacity="1" stop-color="rgb(56.82373%, 83.532715%, 95.729065%)" offset="0.0585938"/><stop stop-opacity="1" stop-color="rgb(56.57959%, 83.372498%, 95.654297%)" offset="0.0625"/><stop stop-opacity="1" stop-color="rgb(56.333923%, 83.21228%, 95.578003%)" offset="0.0664062"/><stop stop-opacity="1" stop-color="rgb(56.089783%, 83.052063%, 95.503235%)" offset="0.0703125"/><stop stop-opacity="1" stop-color="rgb(55.844116%, 82.89032%, 95.426941%)" offset="0.0742188"/><stop stop-opacity="1" stop-color="rgb(55.59845%, 82.730103%, 95.352173%)" offset="0.078125"/><stop stop-opacity="1" stop-color="rgb(55.352783%, 82.569885%, 95.275879%)" offset="0.0820312"/><stop stop-opacity="1" stop-color="rgb(55.108643%, 82.409668%, 95.199585%)" offset="0.0859375"/><stop stop-opacity="1" stop-color="rgb(54.862976%, 82.249451%, 95.123291%)" offset="0.0898438"/><stop stop-opacity="1" stop-color="rgb(54.618835%, 82.089233%, 95.048523%)" offset="0.09375"/><stop stop-opacity="1" stop-color="rgb(54.373169%, 81.929016%, 94.972229%)" offset="0.0976562"/><stop stop-opacity="1" stop-color="rgb(54.129028%, 81.768799%, 94.897461%)" offset="0.101563"/><stop stop-opacity="1" stop-color="rgb(53.883362%, 81.607056%, 94.821167%)" offset="0.105469"/><stop stop-opacity="1" stop-color="rgb(53.637695%, 81.446838%, 94.746399%)" offset="0.109375"/><stop stop-opacity="1" stop-color="rgb(53.392029%, 81.286621%, 94.670105%)" offset="0.113281"/><stop stop-opacity="1" stop-color="rgb(53.147888%, 81.126404%, 94.593811%)" offset="0.117188"/><stop stop-opacity="1" stop-color="rgb(52.902222%, 80.966187%, 94.517517%)" offset="0.121094"/><stop stop-opacity="1" stop-color="rgb(52.658081%, 80.805969%, 94.442749%)" offset="0.125"/><stop stop-opacity="1" stop-color="rgb(52.412415%, 80.645752%, 94.366455%)" offset="0.128906"/><stop stop-opacity="1" stop-color="rgb(52.166748%, 80.485535%, 94.291687%)" offset="0.132812"/><stop stop-opacity="1" stop-color="rgb(51.921082%, 80.325317%, 94.215393%)" offset="0.136719"/><stop stop-opacity="1" stop-color="rgb(51.676941%, 80.1651%, 94.140625%)" offset="0.140625"/><stop stop-opacity="1" stop-color="rgb(51.431274%, 80.003357%, 94.064331%)" offset="0.144531"/><stop stop-opacity="1" stop-color="rgb(51.187134%, 79.84314%, 93.989563%)" offset="0.148438"/><stop stop-opacity="1" stop-color="rgb(50.941467%, 79.682922%, 93.913269%)" offset="0.152344"/><stop stop-opacity="1" stop-color="rgb(50.697327%, 79.522705%, 93.836975%)" offset="0.15625"/><stop stop-opacity="1" stop-color="rgb(50.45166%, 79.362488%, 93.760681%)" offset="0.160156"/><stop stop-opacity="1" stop-color="rgb(50.205994%, 79.202271%, 93.685913%)" offset="0.164062"/><stop stop-opacity="1" stop-color="rgb(49.960327%, 79.042053%, 93.609619%)" offset="0.167969"/><stop stop-opacity="1" stop-color="rgb(49.716187%, 78.881836%, 93.534851%)" offset="0.171875"/><stop stop-opacity="1" stop-color="rgb(49.47052%, 78.721619%, 93.458557%)" offset="0.175781"/><stop stop-opacity="1" stop-color="rgb(49.226379%, 78.561401%, 93.383789%)" offset="0.179688"/><stop stop-opacity="1" stop-color="rgb(48.980713%, 78.399658%, 93.307495%)" offset="0.183594"/><stop stop-opacity="1" stop-color="rgb(48.735046%, 78.239441%, 93.232727%)" offset="0.1875"/><stop stop-opacity="1" stop-color="rgb(48.48938%, 78.079224%, 93.156433%)" offset="0.191406"/><stop stop-opacity="1" stop-color="rgb(48.245239%, 77.919006%, 93.080139%)" offset="0.195312"/><stop stop-opacity="1" stop-color="rgb(47.999573%, 77.758789%, 93.003845%)" offset="0.199219"/><stop stop-opacity="1" stop-color="rgb(47.755432%, 77.598572%, 92.929077%)" offset="0.203125"/><stop stop-opacity="1" stop-color="rgb(47.509766%, 77.438354%, 92.852783%)" offset="0.207031"/><stop stop-opacity="1" stop-color="rgb(47.265625%, 77.278137%, 92.778015%)" offset="0.210938"/><stop stop-opacity="1" stop-color="rgb(47.019958%, 77.11792%, 92.701721%)" offset="0.214844"/><stop stop-opacity="1" stop-color="rgb(46.774292%, 76.957703%, 92.626953%)" offset="0.21875"/><stop stop-opacity="1" stop-color="rgb(46.528625%, 76.795959%, 92.550659%)" offset="0.222656"/><stop stop-opacity="1" stop-color="rgb(46.284485%, 76.635742%, 92.475891%)" offset="0.226562"/><stop stop-opacity="1" stop-color="rgb(46.038818%, 76.475525%, 92.399597%)" offset="0.230469"/><stop stop-opacity="1" stop-color="rgb(45.794678%, 76.315308%, 92.323303%)" offset="0.234375"/><stop stop-opacity="1" stop-color="rgb(45.549011%, 76.15509%, 92.247009%)" offset="0.238281"/><stop stop-opacity="1" stop-color="rgb(45.304871%, 75.994873%, 92.172241%)" offset="0.242187"/><stop stop-opacity="1" stop-color="rgb(45.059204%, 75.834656%, 92.095947%)" offset="0.246094"/><stop stop-opacity="1" stop-color="rgb(44.813538%, 75.674438%, 92.021179%)" offset="0.25"/><stop stop-opacity="1" stop-color="rgb(44.567871%, 75.512695%, 91.944885%)" offset="0.253906"/><stop stop-opacity="1" stop-color="rgb(44.32373%, 75.352478%, 91.870117%)" offset="0.257812"/><stop stop-opacity="1" stop-color="rgb(44.078064%, 75.192261%, 91.793823%)" offset="0.261719"/><stop stop-opacity="1" stop-color="rgb(43.833923%, 75.032043%, 91.719055%)" offset="0.265625"/><stop stop-opacity="1" stop-color="rgb(43.588257%, 74.871826%, 91.642761%)" offset="0.269531"/><stop stop-opacity="1" stop-color="rgb(43.34259%, 74.711609%, 91.566467%)" offset="0.273438"/><stop stop-opacity="1" stop-color="rgb(43.096924%, 74.551392%, 91.490173%)" offset="0.277344"/><stop stop-opacity="1" stop-color="rgb(42.852783%, 74.391174%, 91.415405%)" offset="0.28125"/><stop stop-opacity="1" stop-color="rgb(42.607117%, 74.230957%, 91.339111%)" offset="0.285156"/><stop stop-opacity="1" stop-color="rgb(42.362976%, 74.07074%, 91.264343%)" offset="0.289062"/><stop stop-opacity="1" stop-color="rgb(42.11731%, 73.908997%, 91.188049%)" offset="0.292969"/><stop stop-opacity="1" stop-color="rgb(41.873169%, 73.748779%, 91.113281%)" offset="0.296875"/><stop stop-opacity="1" stop-color="rgb(41.627502%, 73.588562%, 91.036987%)" offset="0.300781"/><stop stop-opacity="1" stop-color="rgb(41.381836%, 73.428345%, 90.962219%)" offset="0.304688"/><stop stop-opacity="1" stop-color="rgb(41.136169%, 73.268127%, 90.885925%)" offset="0.308594"/><stop stop-opacity="1" stop-color="rgb(40.892029%, 73.10791%, 90.809631%)" offset="0.3125"/><stop stop-opacity="1" stop-color="rgb(40.646362%, 72.947693%, 90.733337%)" offset="0.316406"/><stop stop-opacity="1" stop-color="rgb(40.402222%, 72.787476%, 90.658569%)" offset="0.320312"/><stop stop-opacity="1" stop-color="rgb(40.156555%, 72.627258%, 90.582275%)" offset="0.324219"/><stop stop-opacity="1" stop-color="rgb(39.910889%, 72.467041%, 90.507507%)" offset="0.328125"/><stop stop-opacity="1" stop-color="rgb(39.665222%, 72.305298%, 90.431213%)" offset="0.332031"/><stop stop-opacity="1" stop-color="rgb(39.421082%, 72.145081%, 90.356445%)" offset="0.335938"/><stop stop-opacity="1" stop-color="rgb(39.175415%, 71.984863%, 90.280151%)" offset="0.339844"/><stop stop-opacity="1" stop-color="rgb(38.931274%, 71.824646%, 90.205383%)" offset="0.34375"/><stop stop-opacity="1" stop-color="rgb(38.685608%, 71.664429%, 90.129089%)" offset="0.347656"/><stop stop-opacity="1" stop-color="rgb(38.441467%, 71.504211%, 90.052795%)" offset="0.351562"/><stop stop-opacity="1" stop-color="rgb(38.195801%, 71.343994%, 89.976501%)" offset="0.355469"/><stop stop-opacity="1" stop-color="rgb(37.950134%, 71.183777%, 89.901733%)" offset="0.359375"/><stop stop-opacity="1" stop-color="rgb(37.704468%, 71.022034%, 89.825439%)" offset="0.363281"/><stop stop-opacity="1" stop-color="rgb(37.460327%, 70.861816%, 89.750671%)" offset="0.367188"/><stop stop-opacity="1" stop-color="rgb(37.214661%, 70.701599%, 89.674377%)" offset="0.371094"/><stop stop-opacity="1" stop-color="rgb(36.97052%, 70.541382%, 89.599609%)" offset="0.375"/><stop stop-opacity="1" stop-color="rgb(36.724854%, 70.381165%, 89.523315%)" offset="0.378906"/><stop stop-opacity="1" stop-color="rgb(36.479187%, 70.220947%, 89.448547%)" offset="0.382812"/><stop stop-opacity="1" stop-color="rgb(36.233521%, 70.06073%, 89.372253%)" offset="0.386719"/><stop stop-opacity="1" stop-color="rgb(35.98938%, 69.900513%, 89.295959%)" offset="0.390625"/><stop stop-opacity="1" stop-color="rgb(35.743713%, 69.740295%, 89.219666%)" offset="0.394531"/><stop stop-opacity="1" stop-color="rgb(35.499573%, 69.580078%, 89.144897%)" offset="0.398438"/><stop stop-opacity="1" stop-color="rgb(35.253906%, 69.418335%, 89.068604%)" offset="0.402344"/><stop stop-opacity="1" stop-color="rgb(35.009766%, 69.258118%, 88.993835%)" offset="0.40625"/><stop stop-opacity="1" stop-color="rgb(34.764099%, 69.0979%, 88.917542%)" offset="0.410156"/><stop stop-opacity="1" stop-color="rgb(34.518433%, 68.937683%, 88.842773%)" offset="0.414062"/><stop stop-opacity="1" stop-color="rgb(34.272766%, 68.777466%, 88.766479%)" offset="0.417969"/><stop stop-opacity="1" stop-color="rgb(34.028625%, 68.617249%, 88.691711%)" offset="0.421875"/><stop stop-opacity="1" stop-color="rgb(33.782959%, 68.457031%, 88.615417%)" offset="0.425781"/><stop stop-opacity="1" stop-color="rgb(33.538818%, 68.296814%, 88.539124%)" offset="0.429688"/><stop stop-opacity="1" stop-color="rgb(33.293152%, 68.136597%, 88.46283%)" offset="0.433594"/><stop stop-opacity="1" stop-color="rgb(33.049011%, 67.976379%, 88.388062%)" offset="0.4375"/><stop stop-opacity="1" stop-color="rgb(32.803345%, 67.814636%, 88.311768%)" offset="0.441406"/><stop stop-opacity="1" stop-color="rgb(32.557678%, 67.654419%, 88.237%)" offset="0.445312"/><stop stop-opacity="1" stop-color="rgb(32.312012%, 67.494202%, 88.160706%)" offset="0.449219"/><stop stop-opacity="1" stop-color="rgb(32.067871%, 67.333984%, 88.085938%)" offset="0.453125"/><stop stop-opacity="1" stop-color="rgb(31.822205%, 67.173767%, 88.009644%)" offset="0.457031"/><stop stop-opacity="1" stop-color="rgb(31.578064%, 67.01355%, 87.934875%)" offset="0.460938"/><stop stop-opacity="1" stop-color="rgb(31.332397%, 66.853333%, 87.858582%)" offset="0.464844"/><stop stop-opacity="1" stop-color="rgb(31.086731%, 66.693115%, 87.782288%)" offset="0.46875"/><stop stop-opacity="1" stop-color="rgb(30.841064%, 66.532898%, 87.705994%)" offset="0.472656"/><stop stop-opacity="1" stop-color="rgb(30.596924%, 66.372681%, 87.631226%)" offset="0.476562"/><stop stop-opacity="1" stop-color="rgb(30.351257%, 66.210938%, 87.554932%)" offset="0.480469"/><stop stop-opacity="1" stop-color="rgb(30.107117%, 66.05072%, 87.480164%)" offset="0.484375"/><stop stop-opacity="1" stop-color="rgb(29.86145%, 65.890503%, 87.40387%)" offset="0.488281"/><stop stop-opacity="1" stop-color="rgb(29.61731%, 65.730286%, 87.329102%)" offset="0.492188"/><stop stop-opacity="1" stop-color="rgb(29.371643%, 65.570068%, 87.252808%)" offset="0.496094"/><stop stop-opacity="1" stop-color="rgb(29.125977%, 65.409851%, 87.17804%)" offset="0.5"/><stop stop-opacity="1" stop-color="rgb(28.88031%, 65.249634%, 87.101746%)" offset="0.503906"/><stop stop-opacity="1" stop-color="rgb(28.636169%, 65.089417%, 87.025452%)" offset="0.507812"/><stop stop-opacity="1" stop-color="rgb(28.390503%, 64.927673%, 86.949158%)" offset="0.511719"/><stop stop-opacity="1" stop-color="rgb(28.146362%, 64.767456%, 86.87439%)" offset="0.515625"/><stop stop-opacity="1" stop-color="rgb(27.900696%, 64.607239%, 86.798096%)" offset="0.519531"/><stop stop-opacity="1" stop-color="rgb(27.655029%, 64.447021%, 86.723328%)" offset="0.523437"/><stop stop-opacity="1" stop-color="rgb(27.409363%, 64.286804%, 86.647034%)" offset="0.527344"/><stop stop-opacity="1" stop-color="rgb(27.165222%, 64.126587%, 86.572266%)" offset="0.53125"/><stop stop-opacity="1" stop-color="rgb(26.919556%, 63.96637%, 86.495972%)" offset="0.535156"/><stop stop-opacity="1" stop-color="rgb(26.675415%, 63.806152%, 86.421204%)" offset="0.539063"/><stop stop-opacity="1" stop-color="rgb(26.429749%, 63.645935%, 86.34491%)" offset="0.542969"/><stop stop-opacity="1" stop-color="rgb(26.185608%, 63.485718%, 86.268616%)" offset="0.546875"/><stop stop-opacity="1" stop-color="rgb(25.939941%, 63.323975%, 86.192322%)" offset="0.550781"/><stop stop-opacity="1" stop-color="rgb(25.694275%, 63.163757%, 86.117554%)" offset="0.554688"/><stop stop-opacity="1" stop-color="rgb(25.448608%, 63.00354%, 86.04126%)" offset="0.558594"/><stop stop-opacity="1" stop-color="rgb(25.204468%, 62.843323%, 85.966492%)" offset="0.5625"/><stop stop-opacity="1" stop-color="rgb(24.958801%, 62.683105%, 85.890198%)" offset="0.566406"/><stop stop-opacity="1" stop-color="rgb(24.714661%, 62.522888%, 85.81543%)" offset="0.570312"/><stop stop-opacity="1" stop-color="rgb(24.468994%, 62.362671%, 85.739136%)" offset="0.574219"/><stop stop-opacity="1" stop-color="rgb(24.223328%, 62.202454%, 85.664368%)" offset="0.578125"/><stop stop-opacity="1" stop-color="rgb(23.977661%, 62.042236%, 85.588074%)" offset="0.582031"/><stop stop-opacity="1" stop-color="rgb(23.733521%, 61.882019%, 85.51178%)" offset="0.585937"/><stop stop-opacity="1" stop-color="rgb(23.487854%, 61.720276%, 85.435486%)" offset="0.589844"/><stop stop-opacity="1" stop-color="rgb(23.243713%, 61.560059%, 85.360718%)" offset="0.59375"/><stop stop-opacity="1" stop-color="rgb(22.998047%, 61.399841%, 85.284424%)" offset="0.597656"/><stop stop-opacity="1" stop-color="rgb(22.753906%, 61.239624%, 85.209656%)" offset="0.601562"/><stop stop-opacity="1" stop-color="rgb(22.50824%, 61.079407%, 85.133362%)" offset="0.605469"/><stop stop-opacity="1" stop-color="rgb(22.262573%, 60.919189%, 85.058594%)" offset="0.609375"/><stop stop-opacity="1" stop-color="rgb(22.016907%, 60.758972%, 84.9823%)" offset="0.613281"/><stop stop-opacity="1" stop-color="rgb(21.772766%, 60.598755%, 84.907532%)" offset="0.617188"/><stop stop-opacity="1" stop-color="rgb(21.5271%, 60.438538%, 84.831238%)" offset="0.621094"/><stop stop-opacity="1" stop-color="rgb(21.282959%, 60.27832%, 84.754944%)" offset="0.625"/><stop stop-opacity="1" stop-color="rgb(21.037292%, 60.116577%, 84.67865%)" offset="0.628906"/><stop stop-opacity="1" stop-color="rgb(20.791626%, 59.95636%, 84.603882%)" offset="0.632812"/><stop stop-opacity="1" stop-color="rgb(20.545959%, 59.796143%, 84.527588%)" offset="0.636719"/><stop stop-opacity="1" stop-color="rgb(20.301819%, 59.635925%, 84.45282%)" offset="0.640625"/><stop stop-opacity="1" stop-color="rgb(20.056152%, 59.475708%, 84.376526%)" offset="0.644531"/><stop stop-opacity="1" stop-color="rgb(19.812012%, 59.315491%, 84.301758%)" offset="0.648437"/><stop stop-opacity="1" stop-color="rgb(19.566345%, 59.155273%, 84.225464%)" offset="0.652344"/><stop stop-opacity="1" stop-color="rgb(19.322205%, 58.995056%, 84.14917%)" offset="0.65625"/><stop stop-opacity="1" stop-color="rgb(19.076538%, 58.833313%, 84.072876%)" offset="0.660156"/><stop stop-opacity="1" stop-color="rgb(18.830872%, 58.673096%, 83.998108%)" offset="0.664062"/><stop stop-opacity="1" stop-color="rgb(18.585205%, 58.512878%, 83.921814%)" offset="0.667969"/><stop stop-opacity="1" stop-color="rgb(18.341064%, 58.352661%, 83.847046%)" offset="0.671875"/><stop stop-opacity="1" stop-color="rgb(18.095398%, 58.192444%, 83.770752%)" offset="0.675781"/><stop stop-opacity="1" stop-color="rgb(17.851257%, 58.032227%, 83.695984%)" offset="0.679688"/><stop stop-opacity="1" stop-color="rgb(17.605591%, 57.872009%, 83.61969%)" offset="0.683594"/><stop stop-opacity="1" stop-color="rgb(17.36145%, 57.711792%, 83.544922%)" offset="0.6875"/><stop stop-opacity="1" stop-color="rgb(17.115784%, 57.551575%, 83.468628%)" offset="0.691406"/><stop stop-opacity="1" stop-color="rgb(16.870117%, 57.391357%, 83.392334%)" offset="0.695312"/><stop stop-opacity="1" stop-color="rgb(16.624451%, 57.229614%, 83.31604%)" offset="0.699219"/><stop stop-opacity="1" stop-color="rgb(16.38031%, 57.069397%, 83.241272%)" offset="0.703125"/><stop stop-opacity="1" stop-color="rgb(16.134644%, 56.90918%, 83.164978%)" offset="0.707031"/><stop stop-opacity="1" stop-color="rgb(15.890503%, 56.748962%, 83.09021%)" offset="0.710938"/><stop stop-opacity="1" stop-color="rgb(15.644836%, 56.588745%, 83.013916%)" offset="0.714844"/><stop stop-opacity="1" stop-color="rgb(15.39917%, 56.428528%, 82.939148%)" offset="0.71875"/><stop stop-opacity="1" stop-color="rgb(15.153503%, 56.268311%, 82.862854%)" offset="0.722656"/><stop stop-opacity="1" stop-color="rgb(14.909363%, 56.108093%, 82.788086%)" offset="0.726562"/><stop stop-opacity="1" stop-color="rgb(14.663696%, 55.947876%, 82.711792%)" offset="0.730469"/><stop stop-opacity="1" stop-color="rgb(14.419556%, 55.787659%, 82.635498%)" offset="0.734375"/><stop stop-opacity="1" stop-color="rgb(14.173889%, 55.625916%, 82.559204%)" offset="0.738281"/><stop stop-opacity="1" stop-color="rgb(13.929749%, 55.465698%, 82.484436%)" offset="0.742187"/><stop stop-opacity="1" stop-color="rgb(13.684082%, 55.305481%, 82.408142%)" offset="0.746094"/><stop stop-opacity="1" stop-color="rgb(13.438416%, 55.145264%, 82.333374%)" offset="0.75"/><stop stop-opacity="1" stop-color="rgb(13.192749%, 54.985046%, 82.25708%)" offset="0.753906"/><stop stop-opacity="1" stop-color="rgb(12.948608%, 54.824829%, 82.182312%)" offset="0.757813"/><stop stop-opacity="1" stop-color="rgb(12.702942%, 54.664612%, 82.106018%)" offset="0.761719"/><stop stop-opacity="1" stop-color="rgb(12.458801%, 54.504395%, 82.03125%)" offset="0.765625"/><stop stop-opacity="1" stop-color="rgb(12.213135%, 54.342651%, 81.954956%)" offset="0.769531"/><stop stop-opacity="1" stop-color="rgb(11.967468%, 54.182434%, 81.878662%)" offset="0.773438"/><stop stop-opacity="1" stop-color="rgb(11.721802%, 54.022217%, 81.802368%)" offset="0.777344"/><stop stop-opacity="1" stop-color="rgb(11.477661%, 53.862%, 81.7276%)" offset="0.78125"/><stop stop-opacity="1" stop-color="rgb(11.231995%, 53.701782%, 81.651306%)" offset="0.785156"/><stop stop-opacity="1" stop-color="rgb(10.987854%, 53.541565%, 81.576538%)" offset="0.789062"/><stop stop-opacity="1" stop-color="rgb(10.742188%, 53.381348%, 81.500244%)" offset="0.792969"/><stop stop-opacity="1" stop-color="rgb(10.498047%, 53.22113%, 81.425476%)" offset="0.796875"/><stop stop-opacity="1" stop-color="rgb(10.25238%, 53.060913%, 81.349182%)" offset="0.800781"/><stop stop-opacity="1" stop-color="rgb(10.006714%, 52.900696%, 81.274414%)" offset="0.804688"/><stop stop-opacity="1" stop-color="rgb(9.761047%, 52.738953%, 81.19812%)" offset="0.808594"/><stop stop-opacity="1" stop-color="rgb(9.516907%, 52.578735%, 81.121826%)" offset="0.8125"/><stop stop-opacity="1" stop-color="rgb(9.27124%, 52.418518%, 81.045532%)" offset="0.816406"/><stop stop-opacity="1" stop-color="rgb(9.0271%, 52.258301%, 80.970764%)" offset="0.820312"/><stop stop-opacity="1" stop-color="rgb(8.781433%, 52.098083%, 80.89447%)" offset="0.824219"/><stop stop-opacity="1" stop-color="rgb(8.535767%, 51.937866%, 80.819702%)" offset="0.828125"/><stop stop-opacity="1" stop-color="rgb(8.2901%, 51.777649%, 80.743408%)" offset="0.832031"/><stop stop-opacity="1" stop-color="rgb(8.045959%, 51.617432%, 80.66864%)" offset="0.835938"/><stop stop-opacity="1" stop-color="rgb(7.800293%, 51.457214%, 80.592346%)" offset="0.839844"/><stop stop-opacity="1" stop-color="rgb(7.556152%, 51.296997%, 80.517578%)" offset="0.84375"/><stop stop-opacity="1" stop-color="rgb(7.310486%, 51.135254%, 80.441284%)" offset="0.847656"/><stop stop-opacity="1" stop-color="rgb(7.066345%, 50.975037%, 80.36499%)" offset="0.851563"/><stop stop-opacity="1" stop-color="rgb(6.820679%, 50.814819%, 80.288696%)" offset="0.855469"/><stop stop-opacity="1" stop-color="rgb(6.575012%, 50.654602%, 80.213928%)" offset="0.859375"/><stop stop-opacity="1" stop-color="rgb(6.329346%, 50.494385%, 80.137634%)" offset="0.863281"/><stop stop-opacity="1" stop-color="rgb(6.085205%, 50.334167%, 80.062866%)" offset="0.867188"/><stop stop-opacity="1" stop-color="rgb(5.981445%, 50.267029%, 80.030823%)" offset="0.875"/><stop stop-opacity="1" stop-color="rgb(5.879211%, 50.19989%, 79.998779%)" offset="1"/></linearGradient></defs><rect x="-37.5" width="450" fill="#ffffff" y="-37.499999" height="449.999989" fill-opacity="1"/><rect x="-37.5" width="450" fill="#000000" y="-37.499999" height="449.999989" fill-opacity="1"/><g clip-path="url(#bee82a70a9)"><g clip-path="url(#00fec11b15)"><g transform="matrix(1, 0, 0, 1, 0, 108)"><g clip-path="url(#7b840e90f0)"><g clip-path="url(#ed83c850d4)"><g clip-path="url(#a4cc4e2e74)"><path fill="#ffffff" d="M 0 0.347656 L 375.210938 0.347656 L 375.210938 161.511719 L 0 161.511719 Z M 0 0.347656 " fill-opacity="1" fill-rule="nonzero"/></g></g></g></g></g></g><path fill="#003b57" d="M 144.882812 186.46875 C 140.148438 186.46875 136.296875 187.871094 133.34375 190.675781 C 130.394531 193.480469 128.894531 197.160156 128.894531 201.667969 C 128.894531 204.003906 129.265625 206.132812 130 208.082031 C 130.734375 210.039062 131.875 211.851562 133.40625 213.488281 C 134.941406 215.125 138.007812 217.351562 142.582031 220.179688 C 148.195312 223.609375 151.867188 226.390625 153.628906 228.5625 C 155.394531 230.730469 156.269531 233.007812 156.269531 235.378906 C 156.269531 238.550781 155.226562 241.085938 153.078125 242.992188 C 150.925781 244.898438 148.050781 245.847656 144.484375 245.847656 C 140.722656 245.847656 137.449219 244.519531 134.632812 241.886719 C 131.820312 239.246094 130.398438 235.757812 130.367188 231.386719 L 128.617188 231.386719 L 128.617188 247.257812 L 130.367188 247.257812 C 130.902344 245.753906 131.640625 244.988281 132.609375 244.988281 C 133.074219 244.988281 134.164062 245.308594 135.863281 245.90625 C 139.992188 247.378906 143.382812 248.085938 146.050781 248.085938 C 150.644531 248.085938 154.566406 246.476562 157.835938 243.207031 C 161.097656 239.9375 162.746094 235.992188 162.746094 231.386719 C 162.746094 227.816406 161.65625 224.636719 159.523438 221.867188 C 157.386719 219.097656 153.238281 215.871094 147.03125 212.167969 C 141.695312 208.957031 138.226562 206.34375 136.628906 204.308594 C 135.027344 202.273438 134.203125 200.023438 134.203125 197.554688 C 134.203125 194.882812 135.183594 192.738281 137.121094 191.136719 C 139.054688 189.535156 141.589844 188.742188 144.761719 188.742188 C 148.332031 188.742188 151.308594 189.800781 153.660156 191.933594 C 156.011719 194.070312 157.375 197.03125 157.773438 200.839844 L 159.523438 200.839844 L 159.523438 187.082031 L 157.898438 187.082031 C 157.699219 187.785156 157.511719 188.234375 157.34375 188.433594 C 157.179688 188.632812 156.863281 188.742188 156.394531 188.742188 C 155.828125 188.742188 154.816406 188.503906 153.386719 188.035156 C 150.316406 187 147.488281 186.46875 144.882812 186.46875 Z M 202.058594 186.46875 C 196.289062 186.46875 191.046875 187.832031 186.316406 190.554688 C 181.574219 193.269531 177.820312 197.042969 175.050781 201.851562 C 172.285156 206.65625 170.910156 211.761719 170.910156 217.203125 C 170.910156 224.511719 173.300781 231.019531 178.121094 236.726562 C 182.945312 242.429688 188.722656 245.984375 195.429688 247.351562 C 196.960938 248.148438 199.15625 250.214844 202.027344 253.550781 C 205.265625 257.320312 208 260.039062 210.253906 261.65625 C 212.5 263.277344 214.929688 264.464844 217.496094 265.25 C 220.0625 266.03125 222.839844 266.417969 225.84375 266.417969 C 229.480469 266.417969 232.734375 265.785156 235.601562 264.480469 L 234.957031 262.886719 C 233.292969 263.484375 231.519531 263.777344 229.648438 263.777344 C 227.109375 263.777344 224.546875 262.9375 221.976562 261.257812 C 219.410156 259.574219 216.199219 256.359375 212.371094 251.617188 C 210.570312 249.347656 209.328125 247.914062 208.625 247.351562 C 215.964844 245.917969 221.996094 242.359375 226.703125 236.667969 C 231.40625 230.976562 233.761719 224.480469 233.761719 217.203125 C 233.761719 208.558594 230.6875 201.296875 224.585938 195.375 C 218.476562 189.449219 210.96875 186.46875 202.058594 186.46875 Z M 237.75 186.46875 L 237.84375 188.34375 C 241.683594 188.34375 243.835938 189.476562 244.316406 191.75 C 244.496094 192.566406 244.578125 194.066406 244.59375 196.234375 L 244.5625 237.648438 C 244.53125 240.742188 244.089844 242.71875 243.242188 243.574219 C 242.394531 244.425781 240.960938 244.957031 238.886719 245.171875 L 238.792969 247.042969 L 277.09375 247.042969 L 278.074219 237.648438 L 276.328125 237.648438 C 275.828125 240.207031 274.683594 242.042969 272.859375 243.082031 C 271.03125 244.132812 267.796875 244.648438 263.128906 244.648438 L 259.507812 244.648438 C 255.308594 244.648438 252.878906 243.128906 252.234375 240.074219 C 252.101562 239.46875 252.058594 238.820312 252.050781 238.109375 L 252.203125 196.234375 C 252.203125 193.144531 252.59375 191.074219 253.402344 190.0625 C 254.21875 189.050781 255.691406 188.488281 257.820312 188.34375 L 257.730469 186.46875 Z M 202.671875 188.742188 C 209.179688 188.742188 214.496094 191.304688 218.601562 196.476562 C 222.703125 201.652344 224.738281 208.742188 224.738281 217.722656 C 224.738281 226.234375 222.675781 233.046875 218.539062 238.171875 C 214.402344 243.292969 208.898438 245.847656 202.058594 245.847656 C 195.488281 245.847656 190.160156 243.214844 186.070312 237.925781 C 181.984375 232.636719 179.960938 225.769531 179.960938 217.324219 C 179.960938 208.648438 182.007812 201.699219 186.128906 196.507812 C 190.25 191.324219 195.765625 188.742188 202.671875 188.742188 Z M 290.75 197.644531 C 289.816406 197.644531 289.105469 197.960938 288.570312 198.597656 C 288.027344 199.230469 287.859375 199.996094 288.050781 200.929688 C 288.234375 201.835938 288.742188 202.625 289.554688 203.292969 C 290.359375 203.960938 291.226562 204.308594 292.164062 204.308594 C 293.066406 204.308594 293.753906 203.960938 294.25 203.292969 C 294.742188 202.625 294.894531 201.835938 294.710938 200.929688 C 294.519531 199.996094 294.027344 199.230469 293.265625 198.597656 C 292.5 197.960938 291.652344 197.644531 290.75 197.644531 Z M 316.007812 204 C 314.421875 210.109375 310.980469 213.414062 305.695312 213.949219 L 305.757812 215.699219 L 311.925781 215.699219 L 311.804688 236.390625 C 311.8125 239.929688 311.921875 242.285156 312.171875 243.480469 C 312.78125 246.351562 314.652344 247.8125 317.789062 247.8125 C 322.324219 247.8125 327.082031 245.046875 332.058594 239.523438 L 330.554688 238.230469 C 326.960938 241.871094 323.785156 243.695312 321.011719 243.695312 C 319.304688 243.695312 318.25 242.714844 317.847656 240.78125 C 317.738281 240.308594 317.695312 239.761719 317.695312 239.121094 L 317.757812 215.699219 L 327.179688 215.699219 L 327.085938 212.902344 L 317.789062 212.902344 L 317.789062 204 Z M 352.4375 211.796875 C 347.167969 211.796875 342.878906 214.359375 339.546875 219.441406 C 336.230469 224.535156 335.203125 230.179688 336.507812 236.390625 C 337.277344 240.027344 338.804688 242.847656 341.140625 244.832031 C 343.476562 246.820312 346.441406 247.8125 349.980469 247.8125 C 353.277344 247.8125 357.871094 246.976562 359.800781 245.292969 C 361.738281 243.613281 363.523438 240.886719 365.171875 237.15625 L 363.851562 235.777344 C 361.222656 240.617188 355.917969 243.050781 351.914062 243.050781 C 346.414062 243.050781 343.042969 240.03125 341.785156 234.027344 C 341.625 233.257812 341.503906 232.4375 341.417969 231.570312 C 347.964844 230.535156 352.925781 228.699219 356.273438 226.042969 C 359.617188 223.386719 362.976562 220.574219 362.347656 217.601562 C 361.976562 215.835938 361.058594 214.445312 359.648438 213.394531 C 358.21875 212.34375 354.507812 211.796875 352.4375 211.796875 Z M 294.832031 212.011719 L 283.476562 214.621094 L 283.476562 216.648438 L 287.40625 216.15625 C 289.308594 216.15625 290.429688 217.019531 290.78125 218.738281 C 290.902344 219.3125 290.976562 220.117188 290.996094 221.132812 L 290.875 239.707031 C 290.839844 242.277344 290.558594 243.769531 289.984375 244.21875 C 289.40625 244.667969 287.878906 244.894531 285.410156 244.894531 L 285.347656 246.644531 L 303.363281 246.644531 L 303.332031 244.894531 C 300.832031 244.894531 299.207031 244.695312 298.484375 244.3125 C 297.773438 243.929688 297.285156 243.230469 297.074219 242.160156 C 296.910156 241.390625 296.839844 240.066406 296.828125 238.230469 L 296.886719 212.011719 Z M 349.550781 215.453125 C 350.648438 215.453125 351.707031 215.875 352.773438 216.710938 C 353.824219 217.542969 354.464844 218.46875 354.675781 219.472656 C 355.703125 224.410156 351.328125 227.824219 341.480469 229.726562 C 341.199219 226.128906 341.824219 222.859375 343.414062 219.902344 C 344.992188 216.953125 347.046875 215.453125 349.550781 215.453125 Z M 349.550781 215.453125 " fill-opacity="1" fill-rule="nonzero"/><path fill="#0f80cc" d="M 119.449219 115.554688 L 21.730469 115.554688 C 15.179688 115.554688 9.820312 120.914062 9.820312 127.46875 L 9.820312 235.277344 C 9.820312 241.828125 15.179688 247.191406 21.730469 247.191406 L 86.089844 247.191406 C 85.359375 215.152344 96.296875 152.980469 119.449219 115.554688 Z M 119.449219 115.554688 " fill-opacity="1" fill-rule="nonzero"/><g clip-path="url(#64e40a9e40)"><g clip-path="url(#affe17756d)"><path fill="url(#1ba848e85a)" d="M 115.898438 119.03125 L 13.292969 119.03125 L 13.292969 227.410156 L 115.898438 227.410156 Z M 115.898438 119.03125 " fill-rule="nonzero"/></g></g><path fill="#003b57" d="M 142.242188 112.027344 C 135.550781 106.054688 127.445312 108.453125 119.449219 115.554688 C 118.261719 116.609375 117.078125 117.78125 115.898438 119.03125 C 102.21875 133.550781 89.519531 160.445312 85.574219 180.984375 C 87.109375 184.101562 88.3125 188.078125 89.101562 191.117188 C 89.304688 191.898438 89.488281 192.628906 89.632812 193.253906 C 89.980469 194.726562 90.167969 195.683594 90.167969 195.683594 C 90.167969 195.683594 90.042969 195.21875 89.539062 193.757812 C 89.445312 193.476562 89.339844 193.171875 89.210938 192.8125 C 89.15625 192.664062 89.082031 192.484375 89 192.289062 C 88.109375 190.214844 85.640625 185.835938 84.554688 183.925781 C 83.625 186.667969 82.800781 189.234375 82.113281 191.554688 C 85.25 197.296875 87.164062 207.136719 87.164062 207.136719 C 87.164062 207.136719 86.996094 206.496094 86.210938 204.273438 C 85.507812 202.304688 82.023438 196.195312 81.199219 194.769531 C 79.785156 199.984375 79.226562 203.503906 79.730469 204.363281 C 80.714844 206.023438 81.648438 208.890625 82.472656 212.058594 C 84.328125 219.199219 85.617188 227.894531 85.617188 227.894531 C 85.617188 227.894531 85.660156 228.46875 85.730469 229.355469 C 85.472656 235.351562 85.625 241.570312 86.089844 247.191406 C 86.703125 254.628906 87.863281 261.019531 89.339844 264.441406 L 90.339844 263.894531 C 88.171875 257.15625 87.292969 248.324219 87.679688 238.140625 C 88.261719 222.574219 91.84375 203.800781 98.457031 184.234375 C 109.636719 154.695312 125.144531 130.996094 139.339844 119.679688 C 126.402344 131.367188 108.894531 169.203125 103.652344 183.214844 C 97.78125 198.902344 93.625 213.628906 91.117188 227.734375 C 95.441406 214.507812 109.425781 208.824219 109.425781 208.824219 C 109.425781 208.824219 116.285156 200.363281 124.296875 188.273438 C 119.496094 189.367188 111.613281 191.246094 108.972656 192.355469 C 105.078125 193.988281 104.027344 194.546875 104.027344 194.546875 C 104.027344 194.546875 116.644531 186.859375 127.46875 183.378906 C 142.355469 159.925781 158.574219 126.601562 142.242188 112.027344 " fill-opacity="1" fill-rule="nonzero"/></svg>