<svg xmlns="http://www.w3.org/2000/svg" xmlns:xlink="http://www.w3.org/1999/xlink" width="500" zoomAndPan="magnify" viewBox="0 0 375 374.999991" height="500" preserveAspectRatio="xMidYMid meet" version="1.0"><defs><clipPath id="fe2b1dcb83"><path d="M 0 0 L 372.75 0 L 372.75 375 L 0 375 Z M 0 0 " clip-rule="nonzero"/></clipPath></defs><rect x="-37.5" width="450" fill="#ffffff" y="-37.499999" height="449.999989" fill-opacity="1"/><rect x="-37.5" width="450" fill="#000000" y="-37.499999" height="449.999989" fill-opacity="1"/><g clip-path="url(#fe2b1dcb83)"><path fill="#00f018" d="M 318.574219 54.644531 C 283.519531 19.550781 236.90625 0.191406 187.234375 0.191406 C 84.890625 0.191406 1.59375 83.46875 1.554688 185.851562 C 1.554688 218.570312 10.097656 250.527344 26.34375 278.671875 L 0 374.882812 L 98.433594 349.054688 C 125.558594 363.859375 156.089844 371.640625 187.160156 371.660156 L 187.234375 371.660156 C 289.558594 371.660156 372.875 288.359375 372.894531 186 C 372.894531 136.382812 353.625 89.75 318.554688 54.644531 Z M 187.234375 340.3125 L 187.179688 340.3125 C 159.5 340.3125 132.320312 332.863281 108.625 318.800781 L 102.992188 315.449219 L 44.574219 330.769531 L 60.15625 273.816406 L 56.488281 267.980469 C 41.039062 243.414062 32.886719 215.011719 32.902344 185.851562 C 32.941406 100.773438 102.175781 31.539062 187.289062 31.539062 C 228.511719 31.539062 267.253906 47.621094 296.394531 76.800781 C 325.539062 105.960938 341.5625 144.738281 341.546875 185.980469 C 341.507812 271.074219 272.273438 340.3125 187.214844 340.3125 Z M 271.882812 224.738281 C 267.253906 222.421875 244.445312 211.195312 240.183594 209.660156 C 235.921875 208.101562 232.847656 207.34375 229.753906 211.972656 C 226.660156 216.625 217.765625 227.074219 215.0625 230.167969 C 212.355469 233.261719 209.652344 233.652344 205 231.316406 C 200.371094 229 185.417969 224.089844 167.6875 208.289062 C 153.902344 195.984375 144.585938 180.792969 141.878906 176.144531 C 139.175781 171.492188 141.601562 168.992188 143.917969 166.675781 C 145.992188 164.601562 148.550781 161.246094 150.882812 158.542969 C 153.199219 155.835938 153.976562 153.890625 155.515625 150.796875 C 157.070312 147.703125 156.292969 145 155.125 142.664062 C 153.960938 140.347656 144.695312 117.503906 140.824219 108.222656 C 137.0625 99.179688 133.226562 100.40625 130.394531 100.257812 C 127.6875 100.125 124.59375 100.089844 121.5 100.089844 C 118.40625 100.089844 113.386719 101.238281 109.125 105.886719 C 104.863281 110.539062 92.894531 121.765625 92.894531 144.589844 C 92.894531 167.417969 109.511719 189.480469 111.847656 192.59375 C 114.164062 195.6875 144.566406 242.542969 191.105469 262.644531 C 202.167969 267.425781 210.820312 270.277344 217.5625 272.429688 C 228.679688 275.964844 238.796875 275.464844 246.78125 274.261719 C 255.691406 272.929688 274.21875 263.035156 278.089844 252.195312 C 281.964844 241.359375 281.964844 232.074219 280.796875 230.128906 C 279.628906 228.183594 276.535156 227.035156 271.902344 224.703125 Z M 271.882812 224.738281 " fill-opacity="1" fill-rule="evenodd"/></g></svg>